<?xml version="1.0" encoding="iso-8859-1"?>
<!-- Generator: Adobe Illustrator 19.0.0, SVG Export Plug-In . SVG Version: 6.00 Build 0)  -->
<svg version="1.1" id="Capa_1" xmlns="http://www.w3.org/2000/svg" xmlns:xlink="http://www.w3.org/1999/xlink" x="0px" y="0px"
	 viewBox="0 0 512 512" style="enable-background:new 0 0 512 512;" xml:space="preserve">
<path style="fill:#303C42;" d="M330.667,512H181.333c-5.896,0-10.667-4.771-10.667-10.667V256h-96c-4.073,0-7.781-2.312-9.573-5.969
	c-1.792-3.646-1.354-8,1.135-11.219L247.563,4.146c2.019-2.612,5.223-4.143,8.428-4.146c3.211-0.003,6.424,1.529,8.447,4.146
	l181.333,234.667c2.49,3.219,2.927,7.573,1.135,11.219c-1.792,3.656-5.5,5.969-9.573,5.969h-96v245.333
	C341.333,507.229,336.563,512,330.667,512z"/>
<path style="fill:#1E88E5;" d="M192,490.667h128V245.333c0-5.896,4.771-10.667,10.667-10.667h84.948L256,28.115L96.385,234.667
	h84.948c5.896,0,10.667,4.771,10.667,10.667V490.667z"/>
<linearGradient id="SVGID_1_" gradientUnits="userSpaceOnUse" x1="-42.6421" y1="637.3702" x2="-27.2828" y2="630.207" gradientTransform="matrix(21.3333 0 0 -21.3333 996.3333 13791.667)">
	<stop  offset="0" style="stop-color:#FFFFFF;stop-opacity:0.2"/>
	<stop  offset="1" style="stop-color:#FFFFFF;stop-opacity:0"/>
</linearGradient>
<path style="fill:url(#SVGID_1_);" d="M330.667,512H181.333c-5.896,0-10.667-4.771-10.667-10.667V256h-96
	c-4.073,0-7.781-2.312-9.573-5.969c-1.792-3.646-1.354-8,1.135-11.219L247.563,4.146c2.019-2.612,5.223-4.143,8.428-4.146
	c3.211-0.003,6.424,1.529,8.447,4.146l181.333,234.667c2.49,3.219,2.927,7.573,1.135,11.219c-1.792,3.656-5.5,5.969-9.573,5.969h-96
	v245.333C341.333,507.229,336.563,512,330.667,512z"/>
<g>
</g>
<g>
</g>
<g>
</g>
<g>
</g>
<g>
</g>
<g>
</g>
<g>
</g>
<g>
</g>
<g>
</g>
<g>
</g>
<g>
</g>
<g>
</g>
<g>
</g>
<g>
</g>
<g>
</g>
</svg>
